<svg width="28" height="28" viewBox="0 0 28 28" fill="none" xmlns="http://www.w3.org/2000/svg">
<path fill-rule="evenodd" clip-rule="evenodd" d="M11.5581 4.66655C11.5942 4.66662 11.6305 4.66668 11.6667 4.66668C11.703 4.66668 11.7391 4.66662 11.7753 4.66655C12.2055 4.66584 12.6283 4.66514 13.0049 4.76606C14.0115 5.03576 14.7976 5.82194 15.0673 6.82846C15.1682 7.2051 15.1675 7.62792 15.1668 8.05809C15.1668 8.09424 15.1667 8.13045 15.1667 8.16668H24.5C25.1444 8.16668 25.6667 8.68901 25.6667 9.33335C25.6667 9.97767 25.1444 10.5 24.5 10.5H15.1667C15.1667 10.5363 15.1668 10.5725 15.1668 10.6086C15.1675 11.0388 15.1682 11.4616 15.0673 11.8383C14.7976 12.8448 14.0115 13.631 13.0049 13.9006C12.6283 14.0015 12.2055 14.0008 11.7753 14.0001C11.7391 14.0001 11.703 14 11.6667 14C11.6305 14 11.5942 14.0001 11.5581 14.0001C11.1279 14.0008 10.7051 14.0015 10.3285 13.9006C9.32194 13.631 8.53576 12.8448 8.26607 11.8383C8.16515 11.4616 8.16585 11.0388 8.16657 10.6086C8.16663 10.5725 8.16669 10.5362 8.16669 10.5H5.83335C5.18903 10.5 4.66669 9.97767 4.66669 9.33335C4.66669 8.68901 5.18903 8.16668 5.83335 8.16668H8.16669C8.16669 8.13045 8.16663 8.09424 8.16657 8.05809C8.16585 7.62792 8.16515 7.2051 8.26607 6.82846C8.53576 5.82194 9.32194 5.03576 10.3285 4.76606C10.7051 4.66514 11.1279 4.66584 11.5581 4.66655ZM11.0817 7.00626C10.9573 7.01193 10.928 7.02106 10.9324 7.01988C10.7311 7.07383 10.5738 7.23106 10.5199 7.43237C10.5189 7.43647 10.5113 7.47231 10.5063 7.58172C10.5003 7.71242 10.5 7.88486 10.5 8.16668V10.5C10.5 10.7818 10.5003 10.9543 10.5063 11.085C10.5119 11.2094 10.5211 11.2387 10.5199 11.2343C10.5738 11.4356 10.7311 11.5929 10.9324 11.6468C10.928 11.6456 10.9573 11.6548 11.0817 11.6604C11.2124 11.6664 11.3849 11.6667 11.6667 11.6667C11.9486 11.6667 12.121 11.6664 12.2517 11.6604C12.376 11.6548 12.4053 11.6456 12.401 11.6468C12.6024 11.5929 12.7595 11.4356 12.8135 11.2343C12.8124 11.2387 12.8215 11.2094 12.8271 11.085C12.8331 10.9543 12.8334 10.7818 12.8334 10.5V8.16668C12.8334 7.88486 12.8331 7.71242 12.8271 7.58172C12.8215 7.45729 12.8124 7.42801 12.8135 7.43237M11.0817 7.00626C11.2124 7.0003 11.3849 7.00002 11.6667 7.00002L11.0817 7.00626ZM11.6667 7.00002C11.9486 7.00002 12.121 7.0003 12.2517 7.00626L11.6667 7.00002ZM12.2517 7.00626C12.3611 7.01124 12.3969 7.0189 12.401 7.01988L12.2517 7.00626ZM18.5581 13.9999C18.5942 14 18.6304 14 18.6667 14C18.703 14 18.7391 14 18.7753 13.9999C19.2055 13.9992 19.6283 13.9985 20.0049 14.0994C21.0115 14.3691 21.7976 15.1552 22.0673 16.1618C22.1682 16.5384 22.1675 16.9612 22.1668 17.3914C22.1668 17.4276 22.1667 17.4637 22.1667 17.5H24.5C25.1444 17.5 25.6667 18.0223 25.6667 18.6667C25.6667 19.311 25.1444 19.8333 24.5 19.8333H22.1667C22.1667 19.8696 22.1668 19.9058 22.1668 19.942C22.1675 20.3721 22.1682 20.7949 22.0673 21.1716C21.7976 22.1781 21.0115 22.9643 20.0049 23.2339C19.6283 23.3349 19.2055 23.3342 18.7753 23.3335C18.7391 23.3335 18.703 23.3333 18.6667 23.3333C18.6304 23.3333 18.5942 23.3335 18.5581 23.3335C18.1279 23.3342 17.7051 23.3349 17.3285 23.2339C16.3219 22.9643 15.5358 22.1781 15.2661 21.1716C15.1652 20.7949 15.1659 20.3721 15.1666 19.942C15.1666 19.9058 15.1667 19.8696 15.1667 19.8333H5.83335C5.18903 19.8333 4.66669 19.311 4.66669 18.6667C4.66669 18.0223 5.18903 17.5 5.83335 17.5H15.1667C15.1667 17.4638 15.1666 17.4276 15.1666 17.3914C15.1659 16.9612 15.1652 16.5384 15.2661 16.1618C15.5358 15.1552 16.3219 14.3691 17.3285 14.0994C17.7051 13.9985 18.1279 13.9992 18.5581 13.9999ZM18.0817 16.3396C17.9574 16.3452 17.9281 16.3543 17.9324 16.3532C17.731 16.4072 17.5739 16.5645 17.5199 16.7657C17.521 16.7614 17.5119 16.7907 17.5063 16.915C17.5003 17.0457 17.5 17.2183 17.5 17.5V19.8333C17.5 20.1152 17.5003 20.2876 17.5063 20.4183C17.5119 20.5428 17.521 20.5721 17.5199 20.5676C17.5739 20.769 17.731 20.9262 17.9324 20.9802C17.9281 20.979 17.9574 20.9881 18.0817 20.9938C18.2124 20.9998 18.3848 21 18.6667 21C18.9486 21 19.121 20.9998 19.2517 20.9938C19.376 20.9881 19.4053 20.979 19.401 20.9802C19.6024 20.9262 19.7595 20.769 19.8135 20.5676C19.8124 20.5721 19.8215 20.5428 19.8271 20.4183C19.8331 20.2876 19.8334 20.1152 19.8334 19.8333V17.5C19.8334 17.2183 19.8331 17.0457 19.8271 16.915C19.8215 16.7907 19.8124 16.7614 19.8135 16.7657C19.7595 16.5645 19.6024 16.4072 19.401 16.3532C19.4053 16.3543 19.376 16.3452 19.2517 16.3396C19.121 16.3336 18.9486 16.3333 18.6667 16.3333C18.3848 16.3333 18.2124 16.3336 18.0817 16.3396Z" fill="#0F1729"/>
</svg>
